<svg xmlns="http://www.w3.org/2000/svg" width="28" height="28"><path d="M3.5 0v5.25h7V0H8.75v3.5h-3.5V0h-3.5 24.5-3.5v3.5h-3.5V0H17.5v5.25h7V0m1.75 0C27.216 0 28 .784 28 1.75v24.5A1.75 1.75 0 0 1 26.25 28H1.75A1.75 1.75 0 0 1 0 26.25V1.75C0 .784.783 0 1.75 0M3.5 8.75h21V24.5h-21V8.75Zm3.5 3.5h3.5v3.5H7v-3.5Zm5.25 0h3.5v3.5h-3.5v-3.5Zm5.25 0H21v3.5h-3.5v-3.5ZM7 17.5h3.5V21H7v-3.5Zm5.25 0h3.5V21h-3.5v-3.5Zm5.25 0H21V21h-3.5v-3.5Z" fill="rgba(113, 113, 113, 1)" fill-rule="evenodd" data-name="Calendar"/></svg>